<?xml version="1.0" encoding="utf-8"?>
<!-- Generator: Adobe Illustrator 14.0.0, SVG Export Plug-In . SVG Version: 6.00 Build 43363)  -->
<!DOCTYPE svg PUBLIC "-//W3C//DTD SVG 1.1//EN" "http://www.w3.org/Graphics/SVG/1.1/DTD/svg11.dtd">
<svg version="1.1" xmlns="http://www.w3.org/2000/svg" xmlns:xlink="http://www.w3.org/1999/xlink" x="0px" y="0px" width="2114px"
	 height="299.875px" viewBox="0 0 2114 299.875" enable-background="new 0 0 2114 299.875" xml:space="preserve">
<g id="Layer_1">
	<path fill="#7F7629" d="M1697.5,114.502c0,0,124.05,80.586,212.545,55.088c0,0-47.997,44.997-100.495,46.498
		c0,0,20.999,43.497,91.95,50.413c0,0-51.452,48.581-298,12C1603.5,278.502,1433.068,225.088,1697.5,114.502z"/>
	<path fill="#600818" d="M275.558,117.509c0,0-124.05,80.587-212.545,55.089c0,0,47.997,44.997,100.495,46.498
		c0,0-20.999,43.497-91.95,50.413c0,0,51.452,48.581,298,12C369.559,281.509,539.99,228.095,275.558,117.509z"/>
</g>
<g id="Layer_2">
	<path fill="#E1DC46" stroke="#A59D31" stroke-width="4" d="M1110.622,75.588c6.722,15.306,10.461,32.219,10.461,50.008
		c0,68.756-55.737,124.494-124.494,124.494c-0.306,0-0.609-0.01-0.915-0.012v35.923l719.326-30V50.382L1110.622,75.588z"/>
	<path fill="#CC1717" stroke="#B50316" stroke-width="4" d="M872.596,125.102c0-17.561,3.644-34.269,10.204-49.419L275,50.382
		v205.619l720.674,30v-36.423C927.571,248.818,872.596,193.385,872.596,125.102z"/>
	<circle fill="#333333" stroke="#666766" stroke-width="4" cx="997.088" cy="126.1" r="114.997"/>
	
		<text transform="matrix(1.3066 0 0 1 904.0952 171.3184)" fill="#3695D5" stroke="#2473A0" stroke-width="3" font-family="'LowRiderBB'" font-size="110.0907">VS</text>
</g>
<g id="Layer_3">
	<path fill="#B50316" d="M275,50.382c0,0,235,199.618,720.674,235.619l0,0l-720.674-30V50.382z"/>
	<path fill="#A59D31" d="M1715,50.382c0,0-175,203.618-719.326,235.619l0,0l719.326-30V50.382"/>
</g>
<g id="Layer_4">
	<g>
		<g>
			<path fill="#FFFFFF" stroke="#7F7F7F" d="M518.42,131.349c-15.263-0.613-30.524-1.258-45.784-1.938
				c0.097,12.051,0.199,24.102,0.298,36.152c-13.46-0.692-26.917-1.441-40.371-2.253c-3.731-0.226-6.851-1.262-9.347-3.095
				s-3.744-3.91-3.744-6.232c-0.002-24.513-0.008-49.027-0.01-73.54c0-2.322,1.699-4.68,5.09-7.085
				c3.388-2.403,6.912-3.541,10.574-3.4c27.595,1.003,55.193,1.938,82.792,2.846c0.095,11.079,0.143,16.618,0.238,27.697
				c-12.474-0.456-24.947-0.931-37.419-1.425c-5.568-0.045-8.341,1.275-8.318,3.971c0.012,1.393,1.106,2.544,3.087,3.521
				c1.62,0.798,3.474,1.319,5.512,1.402c12.404,0.507,24.81,0.992,37.215,1.457C518.307,118.194,518.345,122.58,518.42,131.349z"/>
			<path fill="#FFFFFF" stroke="#7F7F7F" d="M651.085,161.332c-0.019,3.421-1.635,6.051-4.846,7.887
				c-3.211,1.837-7.415,2.677-12.615,2.521c-27.198-0.824-54.394-1.704-81.587-2.701c-5.233-0.196-9.472-1.326-12.714-3.388
				c-3.242-2.06-4.88-4.802-4.906-8.229c-0.187-24.249-0.372-48.498-0.557-72.747c-0.026-3.425,1.577-6.115,4.812-8.069
				c3.234-1.954,7.496-2.842,12.776-2.664c27.505,0.924,55.009,1.857,82.513,2.823c5.259,0.186,9.502,1.37,12.723,3.547
				c3.222,2.177,4.821,4.977,4.802,8.396C651.354,112.916,651.221,137.124,651.085,161.332z M600.387,137.519
				c-0.006-10.858-0.009-16.288-0.016-27.146c-0.003-4.678-2.052-7.086-6.149-7.224c-0.41-0.014-0.616-0.021-1.026-0.034
				c-4.783-0.161-7.168,2.098-7.157,6.777c0.026,10.861,0.039,16.291,0.064,27.152c0.011,4.591,2.396,6.966,7.154,7.124
				c0.245,0.008,0.367,0.011,0.612,0.02C598.216,144.332,600.39,142.109,600.387,137.519z"/>
			<path fill="#FFFFFF" stroke="#7F7F7F" d="M788.677,143.629c0.064,3.99-0.016,9.597-0.208,16.402
				c-0.223,7.914-0.203,13.471-0.203,16.397c-17.245-0.591-34.49-1.152-51.736-1.681c0.087-10.553,0.129-15.832,0.216-26.386
				c0.05-6.064-4.625-9.267-14.01-9.589c-0.105,11.85-0.214,23.699-0.316,35.549c-17.193-0.508-34.387-1.005-51.581-1.496
				c0.229-31.565,0.464-63.129,0.695-94.694c33.203,1.261,66.4,2.633,99.591,4.181c4.794,0.228,8.912,1.639,12.369,4.22
				c3.456,2.58,5.188,5.422,5.188,8.522c-0.001,10.422-0.005,20.843-0.003,31.265c0,2.239-2.268,4.234-6.662,6.053
				c-3.888,1.609-7.743,2.532-11.507,2.643c0,0.104-0.002,0.154-0.002,0.258c3.856,0.5,7.626,1.36,11.175,2.647
				C786.31,139.6,788.644,141.597,788.677,143.629z M737.042,112.685c0.001-0.158,0.002-0.236,0.003-0.395
				c0.023-2.811-3.449-4.358-10.412-4.627c-1.447-0.056-2.171-0.083-3.618-0.139c-0.033,3.698-0.049,5.545-0.082,9.244
				c1.447,0.054,2.171,0.081,3.618,0.135C733.518,117.163,737.017,115.762,737.042,112.685z"/>
		</g>
	</g>
	<g>
		<g>
			<path stroke="#666766" stroke-width="2" d="M1227.989,171.096c-10.172,0.417-20.343,0.836-30.515,1.258
				c0.072-11.094,0.146-22.188,0.221-33.282c-3.437,0.143-5.156,0.214-8.59,0.356c-0.059,11.104-0.117,22.208-0.176,33.313
				c-10.287,0.513-20.575,1.017-30.862,1.528c0.008-25.26,0.008-50.52,0.016-75.78c0.001-3.259,0.976-6.107,2.798-8.525
				c2.037-2.703,4.591-4.184,7.68-4.288c16.578-0.552,33.154-1.139,49.73-1.752c3.171-0.117,5.722,1.042,7.647,3.475
				s2.868,5.264,2.834,8.499C1228.513,120.963,1228.253,146.03,1227.989,171.096z M1197.828,118.546
				c0.004-0.65,0.008-0.978,0.012-1.628c0.029-4.422-1.395-6.576-4.268-6.466c-0.147,0.006-0.224,0.007-0.371,0.013
				c-2.629,0.101-3.953,2.363-3.977,6.789c-0.004,0.651-0.006,0.978-0.01,1.629C1192.659,118.749,1194.382,118.682,1197.828,118.546
				z"/>
			<path stroke="#666766" stroke-width="2" d="M1309.351,167.725c-0.035,2.09-0.815,3.931-2.341,5.524
				c-1.525,1.592-3.343,2.438-5.449,2.53c-9.53,0.42-14.289,0.63-23.799,1.055c0.048-3.188,0.071-4.781,0.119-7.969
				c-9.518,0.422-19.035,0.851-28.553,1.271c-3.128,0.14-5.658-0.998-7.593-3.417c-1.935-2.419-2.884-5.249-2.847-8.485
				c0.242-20.913,0.487-41.826,0.727-62.739c0.037-3.235,1.065-6.146,3.088-8.73c2.022-2.583,4.622-3.936,7.795-4.059
				c16.562-0.646,33.123-1.308,49.684-1.982c3.175-0.13,5.718,1.012,7.63,3.423c1.912,2.413,2.843,5.227,2.789,8.442
				c-0.142,8.491-0.212,12.735-0.354,21.226c-10.278,0.434-20.557,0.865-30.835,1.293c0.01-0.676,0.016-1.014,0.025-1.69
				c0.063-4.265-1.368-6.338-4.293-6.218c0.049-0.002,0.072-0.003,0.121-0.005c-2.845,0.117-4.294,2.325-4.355,6.62
				c-0.143,9.969-0.215,14.953-0.357,24.921c-0.061,4.214,1.165,6.265,3.68,6.157c0.142-0.006,0.212-0.009,0.354-0.015
				c1.728-0.074,2.963-1.301,3.707-3.682c0.093-6.221,0.14-9.332,0.232-15.553c9.543-0.402,14.315-0.605,23.869-1.01
				c2.111-0.089,3.906,0.601,5.385,2.063c1.479,1.464,2.2,3.242,2.165,5.332C1309.745,143.925,1309.55,155.825,1309.351,167.725z"/>
			<path stroke="#666766" stroke-width="2" d="M1391.232,163.998c-10.307,0.387-20.613,0.778-30.92,1.173
				c0.195-11.009,0.393-22.019,0.59-33.028c-3.469,0.147-5.203,0.221-8.671,0.369c-0.195,11.009-0.391,22.018-0.588,33.027
				c-10.443,0.488-20.888,0.971-31.331,1.47c0.422-24.954,0.852-49.909,1.273-74.863c0.055-3.22,1.084-6.04,2.951-8.447
				c2.086-2.689,4.67-4.177,7.766-4.306c16.614-0.695,33.229-1.402,49.842-2.111c3.177-0.136,5.72,1.003,7.631,3.414
				s2.838,5.225,2.781,8.445C1392.118,114.093,1391.675,139.045,1391.232,163.998z M1361.264,111.773
				c0.012-0.646,0.018-0.968,0.029-1.613c0.078-4.388-1.33-6.522-4.221-6.399c-0.148,0.006-0.223,0.009-0.371,0.016
				c-2.645,0.112-4.003,2.363-4.081,6.751c-0.012,0.646-0.016,0.969-0.027,1.614C1356.061,111.995,1357.795,111.92,1361.264,111.773
				z"/>
			<path stroke="#666766" stroke-width="2" d="M1432.542,152.414c-0.032,1.935-1.316,4.119-3.848,6.556s-4.817,3.694-6.857,3.777
				c-8.379,0.338-12.566,0.508-20.938,0.852c0.45-25.682,0.903-51.363,1.35-77.045c0.042-2.413,1.263-4.755,3.664-7.031
				c2.399-2.276,4.823-3.467,7.268-3.572c8.261-0.354,12.392-0.529,20.652-0.883C1433.402,100.85,1432.973,126.632,1432.542,152.414
				z"/>
			<path stroke="#666766" stroke-width="2" d="M1513.136,159.226c-10.358,0.339-20.716,0.685-31.073,1.038
				c0.268-18.455,0.529-36.91,0.797-55.365c0.062-4.281-1.236-6.369-3.882-6.26c-0.149,0.006-0.223,0.01-0.372,0.016
				c-2.896,0.119-4.373,2.318-4.437,6.598c-0.276,18.448-0.549,36.896-0.822,55.344c-10.511,0.443-21.021,0.896-31.531,1.351
				c0.475-29.094,0.949-58.189,1.424-87.283c20.131-0.86,40.262-1.709,60.393-2.552c3.164-0.131,5.71,0.733,7.631,2.592
				c1.923,1.86,2.869,4.369,2.83,7.521C1513.771,107.892,1513.452,133.559,1513.136,159.226z"/>
			<path stroke="#666766" stroke-width="2" d="M1595.069,145.692c-0.019,3.001-1.074,5.569-3.174,7.705
				c-2.099,2.136-4.664,3.253-7.691,3.353c-20.046,0.66-40.09,1.355-60.133,2.079c0.117-10.032,0.176-15.049,0.293-25.082
				c10.966-0.408,21.932-0.81,32.898-1.207c4.24-0.152,6.373-1.5,6.396-4.052c0.001-0.144,0.001-0.217,0.002-0.361
				c0.016-1.833-1.236-3.063-3.756-3.689c-9.778,0.354-14.667,0.534-24.445,0.899c-7.334,0.274-10.957-3.228-10.872-10.515
				c0.125-10.807,0.252-21.615,0.379-32.422c0.035-2.995,1.08-5.647,3.138-7.956c2.057-2.308,4.59-3.525,7.597-3.646
				c19.944-0.809,39.891-1.59,59.838-2.338c-0.062,10.217-0.095,15.325-0.156,25.542c-10.94,0.398-21.88,0.802-32.819,1.212
				c-4.215,0.159-6.336,1.678-6.362,4.551c-0.001,0.147-0.001,0.22-0.002,0.368c-0.017,1.726,1.232,2.869,3.749,3.431
				c9.714-0.364,14.57-0.543,24.282-0.895c7.401-0.268,11.08,3.294,11.035,10.671c-0.039,6.471-0.059,9.707-0.098,16.178
				C1595.152,131.95,1595.12,137.342,1595.069,145.692z"/>
			<path stroke="#666766" stroke-width="2" d="M1662.609,91.356c-4.983,0.157-7.476,0.237-12.461,0.399
				c-0.024,20.982-0.052,41.963-0.076,62.945c-10.076,0.293-15.115,0.443-25.195,0.752c-2.132,0.065-3.748-1.155-4.902-3.515
				c-0.936-1.912-1.461-4.069-1.451-6.435c0.071-17.564,0.145-35.128,0.213-52.692c-4.987,0.173-7.48,0.259-12.469,0.436
				c0.052-10.077,0.077-15.115,0.129-25.191c18.736-0.685,37.475-1.34,56.213-1.968C1662.608,76.195,1662.61,81.249,1662.609,91.356
				z"/>
		</g>
	</g>
</g>
</svg>
